<?xml version="1.0" encoding="UTF-8"?>
<svg id="Capa_2" xmlns="http://www.w3.org/2000/svg" viewBox="0 0 1600 485.5442">
  <defs>
    <style>
      .cls-1 {
        fill: #f21038;
      }
    </style>
  </defs>
  <g id="principal_logo_red_black_background">
    <g id="taurino">
      <g id="taurino-2" data-name="taurino">
        <path class="cls-1" d="M1564.3043,278.3694c-23.7171-23.7947-52.2973-35.695-85.7392-35.695-33.5224,0-62.1411,11.9003-85.8582,35.695-23.7185,23.7178-35.5767,52.2987-35.5767,85.7414,0,33.521,11.8582,62.1397,35.5767,85.8575,23.7171,23.7178,52.3357,35.576,85.8582,35.576,33.4419,0,62.0221-11.8582,85.7392-35.576,23.7962-23.7178,35.6957-52.3365,35.6957-85.8575,0-33.4426-11.8995-62.0236-35.6957-85.7414ZM1521.3756,407.0388c-11.8589,11.8596-26.1305,17.7894-42.8105,17.7894-16.762,0-31.0713-5.9298-42.9295-17.7894-11.8582-11.8582-17.788-26.1661-17.788-42.928,0-16.6807,5.9298-30.9537,17.788-42.8119,11.8582-11.9365,26.1675-17.9055,42.9295-17.9055,16.68,0,30.9516,5.969,42.8105,17.9055,11.9365,11.8582,17.907,26.1312,17.907,42.8119,0,16.762-5.9704,31.0698-17.907,42.928Z"/>
        <path class="cls-1" d="M1201.7789,242.6744c-33.5217,0-62.1404,11.9003-85.8582,35.695-23.7178,23.7178-35.5774,52.2987-35.5774,85.7414v121.4334h60.7182v-121.4334c0-16.6807,5.9291-30.9537,17.7873-42.8119,11.8596-11.9365,26.1675-17.9055,42.9302-17.9055,16.68,0,30.9516,5.969,42.8105,17.9055,11.9373,11.8582,17.9063,26.1312,17.9063,42.8119v121.4334h60.7174v-121.4334c0-33.4426-11.8988-62.0236-35.695-85.7414-23.7178-23.7947-52.2973-35.695-85.7392-35.695Z"/>
        <rect class="cls-1" x="985.7093" y="242.6744" width="60.7182" height="242.8698"/>
        <path class="cls-1" d="M830.358,242.6744c-33.5217,0-62.1411,11.9003-85.8575,35.695-23.7185,23.7178-35.5774,52.2987-35.5774,85.7414v121.4334h60.7174v-121.4334c0-16.6807,5.9298-30.9537,17.788-42.8119,11.8596-11.9365,26.1682-17.9055,42.9295-17.9055,16.6807,0,30.9523,5.969,42.8105,17.9055,11.9365,11.8582,17.9077,26.1312,17.9077,42.8119h60.7167c0-33.4426-11.8988-62.0236-35.695-85.7414-23.7178-23.7947-52.2973-35.695-85.7399-35.695Z"/>
        <path class="cls-1" d="M614.2914,319.4309v44.677c0,16.6808-5.9713,30.9538-17.9076,42.8119-11.859,11.938-26.1304,17.9055-42.8111,17.9055s-30.9525-5.9675-42.8111-17.9055c-11.9367-11.8582-17.908-26.1312-17.908-42.8119v-44.677l-60.7166-78.778v123.455c0,33.4425,11.8995,62.0237,35.6957,85.7413,23.7172,23.7949,52.2971,35.6949,85.7401,35.6949s62.0228-11.8999,85.7396-35.6949c23.7962-23.7176,35.6957-52.2988,35.6957-85.7413v-123.455l-60.7166,78.778Z"/>
        <path class="cls-1" d="M276.7855,242.6744c-33.5217,0-62.1411,11.9003-85.8589,35.695-23.7171,23.7178-35.576,52.2987-35.576,85.7414,0,33.521,11.8589,62.1397,35.576,85.8575,23.7178,23.7178,52.3372,35.576,85.8589,35.576,22.4305,0,42.6624-5.3624,60.7182-16.032v16.032h60.7167v-121.4334c0-33.4426-11.9003-62.0236-35.695-85.7414-23.7178-23.7947-52.2987-35.695-85.7399-35.695ZM319.596,407.0388c-11.8582,11.8596-26.1298,17.7894-42.8105,17.7894-16.7612,0-31.0698-5.9298-42.9295-17.7894-11.8589-11.8582-17.788-26.1661-17.788-42.928,0-16.6807,5.9291-30.9537,17.788-42.8119,11.8596-11.9365,26.1682-17.9055,42.9295-17.9055,16.6807,0,30.9523,5.969,42.8105,17.9055,11.9365,11.8582,17.9077,26.1312,17.9077,42.8119,0,16.762-5.9712,31.0698-17.9077,42.928Z"/>
        <path class="cls-1" d="M60.7167,121.2395H0v242.8712c0,33.521,11.8582,62.1397,35.576,85.8575,23.7178,23.7178,52.3365,35.576,85.8582,35.576v-60.716c-16.7612,0-31.0706-5.9298-42.9287-17.7894-11.8589-11.8582-17.7887-26.1661-17.7887-42.928v-60.7174h60.7174v-60.7189h-60.7174v-121.4349Z"/>
      </g>
      <path id="toro" class="cls-1" d="M731.3846.0003c-.0983-.0079-.1178.1513-.0206.1671,21.2423,3.4566,37.2258,22.5811,35.7047,45.1261-1.5303,22.6814-21.4882,39.7553-44.2211,39.7553h-338.5518c-22.7329,0-42.6908-17.0739-44.2211-39.7553-1.5211-22.545,14.4624-41.6695,35.7047-45.1261.0973-.0158.0777-.175-.0206-.1671-45.7552,3.6853-81.3595,43.3112-78.3221,90.6767,2.9059,45.3167,42.1207,79.8099,87.5304,79.8099h47.1697l99.3358,127.0836c5.6361,7.2104,13.8343,10.8768,22.0991,11.0728,8.2648-.196,16.463-3.8624,22.0991-11.0728l99.3358-127.0836h47.1697c45.4097,0,84.6245-34.4932,87.5304-79.8099C812.7441,43.3115,777.1398,3.6855,731.3846.0003Z"/>
    </g>
  </g>
</svg>