<?xml version="1.0" encoding="UTF-8"?>
<svg id="Capa_2" xmlns="http://www.w3.org/2000/svg" viewBox="0 0 236.3991 236.3991">
  <defs>
    <style>
      .cls-1 {
        fill: #ffedb3;
      }

      .cls-2 {
        fill: #9e0044;
      }
    </style>
  </defs>
  <g id="Capa_2-2" data-name="Capa_2">
    <g>
      <g id="Capa_1-2">
        <circle class="cls-2" cx="118.1996" cy="118.1996" r="118.19"/>
      </g>
      <g>
        <path class="cls-1" d="M143.6448,55.9398l-.4054-3.8568-61.709,6.4859.4054,3.8568c8.4986-.8933,16.1555,5.3071,17.0487,13.8058,0,0,5.2079,55.4593,6.3738,66.5519,3.4044,32.3904-41.1179,43.4884-41.9366,17.9695-.0336-3.2747,2.1799-5.8539,4.3896-7.1559,12.9205-7.742,2.7271-24.6149-10.2183-18.4231-6.2266,3.139-9.6444,10.676-8.7691,19.0039,2.4322,23.1409,26.1928,32.5143,48.4984,29.6868,22.3056-2.8276,43.0432-17.9477,40.1497-43.8353l-7.6671-67.0371c-1.0298-8.4843,5.3412-16.1591,13.8399-17.0523Z"/>
        <path class="cls-1" d="M168.9278,128.0615c-12.8333,1.3488-22.1186,12.8152-20.7697,25.6485,1.3488,12.8333,12.8152,22.1186,25.6485,20.7697,12.8333-1.3488,22.1186-12.8152,20.7697-25.6485-1.3488-12.8333-12.8152-22.1186-25.6485-20.7697ZM171.0642,135.9118c.3002-1.4119,3.1601-2.4371,5.0641-1.395.8424.4636,1.7835,1.5379,1.566,2.4235-.3343,1.4155-3.4404,2.3976-5.2904,1.2117-.7023-.4438-1.5231-1.3583-1.3397-2.2402ZM159.7523,138.2741c.645-.758,1.7715-2.1877,3.0505-1.839,1.0293.2714,1.726,1.6475,1.5785,2.8708-.2033,1.6777-1.962,2.3457-2.129,2.3978-1.333.4507-3.1652.0911-3.5494-.9382-.2945-.8318.4997-1.8124,1.0494-2.4914ZM158.9124,155.8925c-1.2881.5495-3.1634.436-4.1979-.8701-.7525-.9216-1.0128-2.4126-.3587-3.4131.5929-.925,1.7193-1.0434,3.1186-1.1905,1.4335-.1507,2.8634-.3355,3.5028.4945.9142,1.1462.0137,4.0705-2.0648,4.9791ZM165.3684,167.7404c-1.6598-.0326-3.517-1.2867-3.5455-2.8711-.0196-1.1712.9452-2.1698,1.9027-2.581,2.1504-.8817,5.2739.9295,5.2521,2.6917.0034,1.3455-1.7788,2.7751-3.6093,2.7604ZM171.7979,154.055c-.2838-.0737-1.9525-.5195-2.493-2.05-.6374-1.7964.9077-3.5117,1.1862-3.817.0916-.1132,2.4794-2.6762,4.7695-1.5711,1.7082.8212,2.2665,3.1781,1.589,4.9402-.85,2.0908-3.2429,2.9635-5.0517,2.4979ZM182.073,165.467c-1.2881.5495-3.1634.436-4.1979-.8701-.7525-.9216-1.0128-2.4126-.3587-3.4131.5929-.925,1.7193-1.0434,3.1186-1.1905s2.8634-.3355,3.5028.4945c.9142,1.1462.0137,4.0705-2.0648,4.9791ZM189.1115,151.3381c-1.2953,1.1369-3.1814.2654-3.4346.1539-1.1604-.5337-2.5397-1.8381-2.2701-3.2122.2751-1.6508,2.7596-2.6366,4.5522-1.9968.8999.354,1.5968,1.0745,1.9326,1.9709.2747.9719.138,2.2975-.7801,3.0842Z"/>
      </g>
    </g>
  </g>
</svg>