<?xml version="1.0" encoding="UTF-8"?>
<svg id="Capa_2" xmlns="http://www.w3.org/2000/svg" viewBox="0 0 780.805 531.2849">
  <defs>
    <style>
      .cls-1 {
        fill: #e6e2db;
      }
    </style>
  </defs>
  <g id="Capa_1-2" data-name="Capa_1">
    <g>
      <path class="cls-1" d="M0,198.0157V3.1393h68.7953c12.9035,0,24.236,2.4439,34.0052,7.3241,9.7641,4.884,17.395,11.8607,22.8876,20.9261,5.4938,9.0693,8.2395,19.7084,8.2395,31.9125s-2.7456,22.8027-8.2395,31.7819c-5.4926,8.9838-13.0784,15.9566-22.7576,20.9268-9.6779,4.9695-21.0567,7.4546-34.1352,7.4546H25.6345v74.5503H0ZM25.6345,99.9236h43.9456c7.8471,0,14.6481-1.4796,20.4031-4.4472,5.7537-2.9631,10.2016-7.234,13.3396-12.8173,3.1393-5.5788,4.709-12.0324,4.709-19.3571,0-7.4958-1.5697-13.9945-4.709-19.4877-3.1381-5.4932-7.5859-9.7191-13.3396-12.686-5.755-2.9637-12.5561-4.4472-20.4031-4.4472H25.6345v73.2424Z"/>
      <path class="cls-1" d="M261.8376,201.1544c-13.7771,0-26.6805-2.4845-38.7129-7.4546s-22.5415-11.988-31.5208-21.0574c-8.9831-9.0655-16.0016-19.7489-21.0567-32.0431-5.0603-12.2942-7.5859-25.6757-7.5859-40.1527,0-14.6487,2.5256-28.0746,7.5859-40.2832,5.0551-12.2042,12.0736-22.8432,21.0567-31.9125,8.9793-9.0655,19.4433-16.0421,31.3895-20.9268,11.9424-4.8801,24.8908-7.3241,38.8442-7.3241s26.898,2.4851,38.8455,7.4553c11.9424,4.9695,22.4051,11.9469,31.3895,20.9261,8.9793,8.9838,16.0415,19.5778,21.188,31.7819,5.1413,12.2087,7.7158,25.6345,7.7158,40.2832,0,14.477-2.5745,27.8584-7.7158,40.1527-5.1465,12.2942-12.2087,22.9776-21.188,32.0431-8.9844,9.0693-19.4472,16.0872-31.3895,21.0574-11.9475,4.9702-24.896,7.4546-38.8455,7.4546ZM261.8376,177.3508c10.8114,0,20.6656-1.9614,29.5587-5.8856,8.8944-3.9235,16.6102-9.4167,23.15-16.479,6.5399-7.0629,11.595-15.258,15.1718-24.5885,3.5716-9.3273,5.3626-19.3121,5.3626-29.9511s-1.791-20.5749-5.3626-29.8199c-3.5768-9.2411-8.6319-17.395-15.1718-24.4579-6.5399-7.0629-14.2557-12.5561-23.15-16.4796-8.8931-3.9235-18.7473-5.8856-29.5587-5.8856-10.639,0-20.4031,1.9621-29.2962,5.8856-8.8944,3.9235-16.6102,9.4167-23.15,16.4796s-11.64,15.2168-15.3017,24.4579c-3.663,9.245-5.4938,19.1847-5.4938,29.8199s1.8309,20.6238,5.4938,29.9511c3.6617,9.3305,8.7618,17.5256,15.3017,24.5885,6.5399,7.0622,14.2557,12.5554,23.15,16.479,8.8931,3.9242,18.6572,5.8856,29.2962,5.8856Z"/>
      <path class="cls-1" d="M398.3795,198.0157V3.1393h68.7953c12.9035,0,24.236,2.4439,34.0052,7.3241,9.7641,4.884,17.395,11.8607,22.8876,20.9261,5.4938,9.0693,8.2395,19.7084,8.2395,31.9125,0,13.7784-3.4893,25.4634-10.4627,35.0519-6.976,9.5924-16.394,16.4796-28.2502,20.665l45.2528,78.9968h-29.8199l-47.6073-84.49,17.0026,9.9397h-54.4083v74.5503h-25.6345ZM424.014,99.9236h43.9456c7.6708,0,14.3869-1.4796,20.1407-4.4472,5.755-2.9631,10.2427-7.234,13.4721-12.8173,3.2243-5.5788,4.839-12.0324,4.839-19.3571,0-7.4958-1.6147-13.9945-4.839-19.4877-3.2294-5.4932-7.7171-9.7191-13.4721-12.686-5.7537-2.9637-12.4699-4.4472-20.1407-4.4472h-43.9456v73.2424Z"/>
      <path class="cls-1" d="M596.6583,198.0157V26.6812h-52.84V3.1393h130.7908v23.5418h-52.0551v171.3345h-25.8957Z"/>
      <path class="cls-1" d="M0,417.5604v-194.8764h123.4648v23.5418H25.6345v63.0409h88.6747v23.5418H25.6345v84.7518H0Z"/>
      <path class="cls-1" d="M243.0054,420.6991c-13.7771,0-26.6805-2.4845-38.7129-7.4546s-22.5415-11.988-31.5208-21.0574c-8.9831-9.0655-16.0016-19.7489-21.0567-32.0431-5.0603-12.2942-7.5859-25.6757-7.5859-40.1527,0-14.6487,2.5256-28.0746,7.5859-40.2832,5.0551-12.2042,12.0736-22.8432,21.0567-31.9125,8.9793-9.0655,19.4433-16.0421,31.3895-20.9268,11.9424-4.8801,24.8908-7.3241,38.8442-7.3241s26.898,2.4851,38.8455,7.4553c11.9424,4.9695,22.4051,11.9469,31.3895,20.9261,8.9793,8.9838,16.0415,19.5778,21.188,31.7819,5.1413,12.2087,7.7158,25.6345,7.7158,40.2832,0,14.477-2.5745,27.8584-7.7158,40.1527-5.1465,12.2942-12.2087,22.9776-21.188,32.0431-8.9844,9.0693-19.4472,16.0872-31.3895,21.0574-11.9475,4.9702-24.896,7.4546-38.8455,7.4546ZM243.0054,396.8955c10.8114,0,20.6656-1.9614,29.5587-5.8856,8.8944-3.9235,16.6102-9.4167,23.15-16.479,6.5399-7.0629,11.595-15.258,15.1718-24.5885,3.5716-9.3273,5.3626-19.3121,5.3626-29.9511s-1.791-20.5749-5.3626-29.8199c-3.5768-9.2411-8.6319-17.395-15.1718-24.4579-6.5399-7.0629-14.2557-12.5561-23.15-16.4796-8.8931-3.9235-18.7473-5.8856-29.5587-5.8856-10.639,0-20.4031,1.9621-29.2962,5.8856-8.8944,3.9235-16.6102,9.4167-23.15,16.4796-6.5399,7.0629-11.64,15.2168-15.3017,24.4579-3.663,9.245-5.4938,19.1847-5.4938,29.8199s1.8309,20.6238,5.4938,29.9511c3.6617,9.3305,8.7618,17.5256,15.3017,24.5885,6.5399,7.0622,14.2557,12.5554,23.15,16.479,8.8931,3.9242,18.6572,5.8856,29.2962,5.8856Z"/>
      <path class="cls-1" d="M379.5486,417.5604v-194.8764h25.6345v171.3339h85.5367v23.5425h-111.1712Z"/>
      <path class="cls-1" d="M519.4911,417.5604v-194.8764h25.6345v194.8764h-25.6345Z"/>
      <path class="cls-1" d="M681.6662,420.6991c-13.7771,0-26.6805-2.4845-38.7129-7.4546s-22.5415-11.988-31.5208-21.0574c-8.9831-9.0655-16.0016-19.7489-21.0567-32.0431-5.0603-12.2942-7.5859-25.6757-7.5859-40.1527,0-14.6487,2.5256-28.0746,7.5859-40.2832,5.0551-12.2042,12.0736-22.8432,21.0567-31.9125,8.9793-9.0655,19.4433-16.0421,31.3895-20.9268,11.9424-4.8801,24.8908-7.3241,38.8442-7.3241s26.898,2.4851,38.8455,7.4553c11.9424,4.9695,22.4051,11.9469,31.3895,20.9261,8.9793,8.9838,16.0415,19.5778,21.188,31.7819,5.1413,12.2087,7.7158,25.6345,7.7158,40.2832,0,14.477-2.5745,27.8584-7.7158,40.1527-5.1465,12.2942-12.2087,22.9776-21.188,32.0431-8.9844,9.0693-19.4472,16.0872-31.3895,21.0574-11.9475,4.9702-24.896,7.4546-38.8455,7.4546ZM681.6662,396.8955c10.8114,0,20.6656-1.9614,29.5587-5.8856,8.8944-3.9235,16.6102-9.4167,23.15-16.479,6.5399-7.0629,11.595-15.258,15.1718-24.5885,3.5716-9.3273,5.3626-19.3121,5.3626-29.9511s-1.791-20.5749-5.3626-29.8199c-3.5768-9.2411-8.6319-17.395-15.1718-24.4579-6.5399-7.0629-14.2557-12.5561-23.15-16.4796-8.8931-3.9235-18.7473-5.8856-29.5587-5.8856-10.639,0-20.4031,1.9621-29.2962,5.8856-8.8944,3.9235-16.6102,9.4167-23.15,16.4796-6.5399,7.0629-11.64,15.2168-15.3017,24.4579-3.663,9.245-5.4938,19.1847-5.4938,29.8199s1.8309,20.6238,5.4938,29.9511c3.6617,9.3305,8.7618,17.5256,15.3017,24.5885,6.5399,7.0622,14.2557,12.5554,23.15,16.479,8.8931,3.9242,18.6572,5.8856,29.2962,5.8856Z"/>
    </g>
    <g>
      <path class="cls-1" d="M8.4467,487.0699c-1.6357,0-3.0901-.3829-4.3631-1.1492-1.2734-.7656-2.2724-1.8112-2.9971-3.1364-.7246-1.3246-1.0865-2.8153-1.0865-4.4718,0-1.6767.3619-3.1674,1.0865-4.4716.7246-1.3044,1.7237-2.3393,2.9971-3.1054,1.273-.7658,2.7274-1.1492,4.3631-1.1492,1.0967,0,2.1217.1971,3.074.5902.9523.3935,1.7908.9213,2.5154,1.5837.7246.6628,1.2526,1.4391,1.5839,2.3289l-2.5774,1.2422c-.3937-.8695-.9939-1.5784-1.8014-2.1272-.807-.5484-1.7389-.823-2.7945-.823-1.0147,0-1.9309.2591-2.7486.7765-.8181.5178-1.4646,1.2218-1.9407,2.1117-.4766.8903-.7144,1.9152-.7144,3.0744,0,1.118.2379,2.1272.7144,3.0277.4762.9007,1.1226,1.61,1.9407,2.1272.8177.5178,1.7339.7765,2.7486.7765,1.0555,0,1.9874-.2742,2.7945-.823.8075-.5484,1.4076-1.2781,1.8014-2.1894l2.5774,1.3044c-.3313.8695-.8593,1.641-1.5839,2.3134-.7246.673-1.5631,1.2063-2.5154,1.5992-.9523.3931-1.9772.5902-3.074.5902Z"/>
      <path class="cls-1" d="M19.4084,486.6971v-16.7381h2.8259v3.0744l-.3105-.4347c.3929-.9521.9935-1.6614,1.801-2.1272.8075-.466,1.7908-.6987,2.9504-.6987h1.0245v2.7327h-1.4595c-1.18,0-2.1323.3678-2.8569,1.1025-.7251.735-1.0869,1.7755-1.0869,3.1209v9.9684h-2.8879Z"/>
      <path class="cls-1" d="M37.9782,487.0699c-1.6145,0-3.054-.3829-4.3164-1.1492-1.2632-.7656-2.2567-1.8165-2.9814-3.1519-.7246-1.3352-1.0865-2.8308-1.0865-4.4873,0-1.6769.3568-3.1674,1.0712-4.4718.714-1.3042,1.6871-2.3338,2.9189-3.0897,1.2314-.7556,2.6135-1.1337,4.1456-1.1337,1.2424,0,2.3447.2228,3.3076.6677.9625.4456,1.7802,1.0457,2.453,1.8012.6728.7561,1.1906,1.6147,1.5529,2.5774.3619.9627.5433,1.9617.5433,2.9969,0,.2279-.0153.4812-.0463.7607s-.0675.5435-.1087.792h-13.726v-2.4844h12.049l-1.3664,1.118c.1865-1.0763.0824-2.0388-.3105-2.8881-.3937-.8487-.9735-1.5215-1.7389-2.0184-.7663-.4968-1.6357-.7452-2.6088-.7452s-1.863.2485-2.6704.7452c-.8075.497-1.434,1.2063-1.8787,2.1272-.4456.9215-.6265,2.0138-.5437,3.2761-.0828,1.2218.1087,2.2933.5747,3.2141.466.9215,1.1282,1.6357,1.9874,2.1427.8589.5076,1.7959.7609,2.8102.7609,1.118,0,2.0601-.2587,2.8259-.7765.7658-.5171,1.3868-1.18,1.8634-1.9874l2.4224,1.2422c-.3317.7663-.844,1.465-1.5372,2.0962-.6941.6318-1.5117,1.1335-2.4534,1.5062-.9421.3725-1.993.559-3.1521.559Z"/>
      <path class="cls-1" d="M54.0336,487.0699c-1.0976,0-2.0647-.202-2.9032-.6057s-1.496-.9625-1.9721-1.6769c-.4766-.7142-.714-1.537-.714-2.4687,0-.8899.1911-1.6924.5743-2.4067.3827-.7142.9829-1.3199,1.801-1.8167.8177-.497,1.8481-.8487,3.0901-1.0559l6.2108-1.0247v2.4222l-5.5588.9317c-1.0768.1863-1.8583.528-2.3447,1.0247-.4863.497-.7297,1.1078-.7297,1.8322,0,.6832.2744,1.2528.8232,1.7079.5484.4558,1.2369.6832,2.0652.6832,1.0555,0,1.9717-.2221,2.7482-.6677.7765-.4449,1.3868-1.0504,1.832-1.8165.4451-.7658.6677-1.6149.6677-2.5466v-4.2544c0-.9107-.3368-1.6506-1.0092-2.2204-.6728-.569-1.558-.854-2.6551-.854-.9523,0-1.7963.2436-2.5307.7299-.7353.4866-1.2785,1.1335-1.6306,1.9407l-2.5154-1.3042c.3109-.7656.8075-1.4542,1.4909-2.0652.683-.6104,1.4798-1.0916,2.3909-1.444.9107-.3517,1.8634-.528,2.8569-.528,1.2836,0,2.4118.2436,3.3849.7299.9731.4866,1.7339,1.1596,2.2826,2.0184.5484.8593.8228,1.8583.8228,2.9967v11.3658h-2.8259v-3.1676l.528.1865c-.3521.6628-.8283,1.2422-1.4285,1.7389-.6006.497-1.304.8905-2.1115,1.1802s-1.6876.4347-2.6399.4347Z"/>
      <path class="cls-1" d="M74.5913,487.0699c-1.5737,0-2.9865-.3829-4.2391-1.1492-1.2526-.7656-2.241-1.8112-2.9656-3.1364-.7246-1.3246-1.0865-2.8051-1.0865-4.4406,0-1.6769.3619-3.1725,1.0865-4.4873.7246-1.3144,1.713-2.3548,2.9656-3.1209,1.2526-.7658,2.6653-1.1492,4.2391-1.1492,1.3868,0,2.6186.2952,3.6954.8852,1.0763.59,1.9254,1.3819,2.5464,2.3757l-.466.7142v-10.3721h2.9193v23.5079h-2.8259v-3.5711l.3725.4968c-.5798,1.0976-1.4238,1.9462-2.5307,2.5464-1.1078.6002-2.3447.9007-3.7111.9007ZM74.8398,484.275c1.0559,0,1.9976-.2587,2.8259-.7765.8278-.5171,1.4854-1.2265,1.9717-2.1272.4863-.9005.7297-1.9097.7297-3.0277,0-1.1383-.2434-2.1584-.7297-3.0589s-1.1439-1.6094-1.9717-2.1272c-.8283-.5174-1.77-.7765-2.8259-.7765-1.0356,0-1.9721.264-2.8106.792s-1.4956,1.232-1.9717,2.1117c-.4766.8801-.7144,1.8997-.7144,3.0589,0,1.118.2379,2.1272.7144,3.0277.4762.9007,1.1282,1.61,1.9564,2.1272.8278.5178,1.77.7765,2.8259.7765Z"/>
      <path class="cls-1" d="M95.7076,487.0699c-1.6149,0-3.0744-.3776-4.3784-1.1335-1.3044-.7556-2.34-1.7959-3.1054-3.1211-.7663-1.3246-1.149-2.8259-1.149-4.5028s.3772-3.1674,1.1332-4.4716c.7556-1.3044,1.7857-2.3393,3.0901-3.1054,1.304-.7658,2.7737-1.1492,4.4094-1.1492,1.6149,0,3.0744.378,4.3788,1.1337,1.304.7559,2.3336,1.7855,3.0897,3.0897.7556,1.3044,1.1337,2.8057,1.1337,4.5028,0,1.698-.3937,3.2039-1.18,4.5185-.7871,1.3148-1.8277,2.3497-3.1211,3.1054-1.2942.7559-2.7278,1.1335-4.3011,1.1335ZM95.7076,484.275c1.0351,0,1.9721-.2587,2.8106-.7765.8385-.5171,1.5007-1.2314,1.9874-2.1427.4859-.9107.7297-1.9254.7297-3.0434,0-1.1381-.2438-2.1476-.7297-3.0277-.4868-.8797-1.149-1.5837-1.9874-2.1117s-1.7755-.792-2.8106-.792c-1.0559,0-2.0027.264-2.8412.792s-1.5062,1.232-2.0031,2.1117c-.497.8801-.7454,1.8895-.7454,3.0277,0,1.118.2485,2.1327.7454,3.0434.497.9113,1.1647,1.6255,2.0031,2.1427.8385.5178,1.7852.7765,2.8412.7765Z"/>
      <path class="cls-1" d="M113.439,492.9079v-22.9489h2.8259v3.6024l-.3725-.7142c.621-.9937,1.4697-1.7857,2.5464-2.3757,1.0759-.59,2.3081-.8852,3.6954-.8852,1.5729,0,2.986.3833,4.2386,1.1492,1.2526.766,2.241,1.8065,2.9656,3.1209.7246,1.3148,1.0869,2.8104,1.0869,4.4873,0,1.6355-.3623,3.116-1.0869,4.4406-.7246,1.3252-1.713,2.3708-2.9656,3.1364-1.2526.7663-2.676,1.1492-4.2696,1.1492-1.3461,0-2.5727-.3005-3.6801-.9007-1.1078-.6002-1.9615-1.4488-2.5617-2.5464l.4655-.4968v9.7819h-2.8879ZM121.8857,484.275c1.0559,0,1.9976-.2587,2.8259-.7765.8278-.5171,1.4752-1.2265,1.9407-2.1272.466-.9005.6987-1.9097.6987-3.0277,0-1.1592-.2328-2.1788-.6987-3.0589-.4655-.8797-1.1129-1.5837-1.9407-2.1117-.8283-.528-1.77-.792-2.8259-.792s-2.0031.2591-2.8416.7765c-.8385.5178-1.5011,1.2267-1.9874,2.1272s-.7297,1.9205-.7297,3.0589c0,1.118.2434,2.1272.7297,3.0277.4863.9007,1.149,1.61,1.9874,2.1272.8385.5178,1.7857.7765,2.8416.7765Z"/>
      <path class="cls-1" d="M142.1636,487.0699c-1.6149,0-3.0744-.3776-4.3784-1.1335-1.3044-.7556-2.34-1.7959-3.1054-3.1211-.7663-1.3246-1.149-2.8259-1.149-4.5028s.3772-3.1674,1.1332-4.4716c.7556-1.3044,1.7857-2.3393,3.0901-3.1054,1.304-.7658,2.7737-1.1492,4.4094-1.1492,1.6149,0,3.0744.378,4.3788,1.1337,1.304.7559,2.3336,1.7855,3.0897,3.0897.7556,1.3044,1.1337,2.8057,1.1337,4.5028,0,1.698-.3937,3.2039-1.18,4.5185-.7871,1.3148-1.8277,2.3497-3.1211,3.1054-1.2942.7559-2.7278,1.1335-4.3011,1.1335ZM142.1636,484.275c1.0351,0,1.9721-.2587,2.8106-.7765.8385-.5171,1.5007-1.2314,1.9874-2.1427.4859-.9107.7297-1.9254.7297-3.0434,0-1.1381-.2438-2.1476-.7297-3.0277-.4868-.8797-1.149-1.5837-1.9874-2.1117s-1.7755-.792-2.8106-.792c-1.0559,0-2.0027.264-2.8412.792s-1.5062,1.232-2.0031,2.1117c-.497.8801-.7454,1.8895-.7454,3.0277,0,1.118.2485,2.1327.7454,3.0434.497.9113,1.1647,1.6255,2.0031,2.1427.8385.5178,1.7852.7765,2.8412.7765Z"/>
      <path class="cls-1" d="M154.5231,486.6971v-16.7381h2.8259v3.0744l-.3105-.4347c.3929-.9521.9935-1.6614,1.801-2.1272.8075-.466,1.7908-.6987,2.9504-.6987h1.0245v2.7327h-1.4595c-1.18,0-2.1323.3678-2.8569,1.1025-.7251.735-1.0869,1.7755-1.0869,3.1209v9.9684h-2.8879Z"/>
      <path class="cls-1" d="M8.3537,530.9122l-8.3537-23.1352h3.2608l7.0803,20.3403h-.652l7.0803-20.3403h3.2604l-8.3222,23.1352h-3.3539Z"/>
      <path class="cls-1" d="M28.756,531.2849c-1.6145,0-3.054-.3829-4.3164-1.1492-1.2632-.7656-2.2567-1.8165-2.9814-3.1519-.7246-1.3352-1.0865-2.8308-1.0865-4.4873,0-1.6769.3568-3.1674,1.0712-4.4718.714-1.3042,1.6871-2.3338,2.9189-3.0897,1.2314-.7556,2.6135-1.1337,4.1456-1.1337,1.2424,0,2.3447.2228,3.3076.6677.9625.4456,1.7802,1.0457,2.453,1.8012.6728.7561,1.1906,1.6147,1.5529,2.5774.3619.9627.5433,1.9617.5433,2.9969,0,.2279-.0153.4812-.0463.7607s-.0675.5435-.1087.792h-13.726v-2.4844h12.049l-1.3664,1.118c.1865-1.0763.0824-2.0388-.3105-2.8881-.3937-.8487-.9735-1.5215-1.7389-2.0184-.7663-.4968-1.6357-.7452-2.6088-.7452s-1.863.2485-2.6704.7452c-.8075.497-1.434,1.2063-1.8787,2.1272-.4456.9215-.6265,2.0138-.5437,3.2761-.0828,1.2218.1087,2.2933.5747,3.2141.466.9215,1.1282,1.6357,1.9874,2.1427.8589.5076,1.7959.7609,2.8102.7609,1.118,0,2.0601-.2587,2.8259-.7765.7658-.5171,1.3868-1.18,1.8634-1.9874l2.4224,1.2422c-.3317.7663-.844,1.465-1.5372,2.0962-.6941.6318-1.5117,1.1335-2.4534,1.5062-.9421.3725-1.993.559-3.1521.559Z"/>
      <path class="cls-1" d="M40.122,530.9122v-16.7381h2.8259v3.0744l-.3105-.4347c.3929-.9521.9935-1.6614,1.801-2.1272.8075-.466,1.7908-.6987,2.9504-.6987h1.0245v2.7327h-1.4595c-1.18,0-2.1323.3678-2.8569,1.1025-.7251.735-1.0869,1.7755-1.0869,3.1209v9.9684h-2.8879Z"/>
      <path class="cls-1" d="M58.9404,531.2849c-1.6149,0-3.0744-.3776-4.3784-1.1335-1.3044-.7556-2.34-1.7959-3.1054-3.1211-.7663-1.3246-1.149-2.8259-1.149-4.5028s.3772-3.1674,1.1332-4.4716c.7556-1.3044,1.7857-2.3393,3.0901-3.1054,1.304-.7658,2.7737-1.1492,4.4094-1.1492,1.6149,0,3.0744.378,4.3788,1.1337,1.304.7559,2.3336,1.7855,3.0897,3.0897.7556,1.3044,1.1337,2.8057,1.1337,4.5028,0,1.698-.3937,3.2039-1.18,4.5185-.7871,1.3148-1.8277,2.3497-3.1211,3.1054-1.2942.7559-2.7278,1.1335-4.3011,1.1335ZM58.9404,528.49c1.0351,0,1.9721-.2587,2.8106-.7765.8385-.5171,1.5007-1.2314,1.9874-2.1427.4859-.9107.7297-1.9254.7297-3.0434,0-1.1381-.2438-2.1476-.7297-3.0277-.4868-.8797-1.149-1.5837-1.9874-2.1117s-1.7755-.792-2.8106-.792c-1.0559,0-2.0027.264-2.8412.792s-1.5062,1.232-2.0031,2.1117c-.497.8801-.7454,1.8895-.7454,3.0277,0,1.118.2485,2.1327.7454,3.0434.497.9113,1.1647,1.6255,2.0031,2.1427.8385.5178,1.7852.7765,2.8412.7765ZM57.4809,511.0377l2.4534-4.9066h3.9128l-3.4783,4.9066h-2.8879Z"/>
      <path class="cls-1" d="M71.2995,530.9122v-16.7381h2.8259v3.2606l-.466-.2795c.4141-1.0557,1.0819-1.8787,2.0031-2.4687.9209-.59,2.0031-.8852,3.2451-.8852,1.2004,0,2.2716.2693,3.2141.8075.9417.5386,1.6871,1.2838,2.2359,2.2359.5484.9525.8228,2.0293.8228,3.2296v10.8379h-2.9189v-9.9061c0-.9317-.1661-1.7181-.497-2.3602-.3313-.6416-.8024-1.1437-1.4127-1.5062-.6112-.3619-1.3099-.5435-2.0962-.5435-.7871,0-1.4858.1816-2.0962.5435-.6112.3625-1.0925.8695-1.4442,1.5217-.3521.6522-.528,1.4338-.528,2.3447v9.9061h-2.8879Z"/>
      <path class="cls-1" d="M89.3104,511.5034v-3.7264h2.8879v3.7264h-2.8879ZM89.3104,530.9122v-16.7381h2.8879v16.7381h-2.8879Z"/>
      <path class="cls-1" d="M104.4338,531.2849c-1.6357,0-3.0901-.3829-4.3631-1.1492-1.2734-.7656-2.2724-1.8112-2.9971-3.1364-.7246-1.3246-1.0865-2.8153-1.0865-4.4718,0-1.6767.3619-3.1674,1.0865-4.4716.7246-1.3044,1.7237-2.3393,2.9971-3.1054,1.273-.7658,2.7274-1.1492,4.3631-1.1492,1.0967,0,2.1217.1971,3.074.5902.9523.3935,1.7908.9213,2.5154,1.5837.7246.6628,1.2526,1.4391,1.5839,2.3289l-2.5774,1.2422c-.3937-.8695-.9939-1.5784-1.8014-2.1272-.807-.5484-1.7389-.823-2.7945-.823-1.0147,0-1.9309.2591-2.7486.7765-.8181.5178-1.4646,1.2218-1.9407,2.1117-.4766.8903-.7144,1.9152-.7144,3.0744,0,1.118.2379,2.1272.7144,3.0277.4762.9007,1.1226,1.61,1.9407,2.1272.8177.5178,1.7339.7765,2.7486.7765,1.0555,0,1.9874-.2742,2.7945-.823.8075-.5484,1.4076-1.2781,1.8014-2.1894l2.5774,1.3044c-.3313.8695-.8593,1.641-1.5839,2.3134-.7246.673-1.5631,1.2063-2.5154,1.5992-.9523.3931-1.9772.5902-3.074.5902Z"/>
      <path class="cls-1" d="M120.0852,531.2849c-1.0976,0-2.0647-.202-2.9032-.6057s-1.496-.9625-1.9721-1.6769c-.4766-.7142-.714-1.537-.714-2.4687,0-.8899.1911-1.6924.5743-2.4067.3827-.7142.9829-1.3199,1.801-1.8167.8177-.497,1.8481-.8487,3.0901-1.0559l6.2108-1.0247v2.4222l-5.5588.9317c-1.0768.1863-1.8583.528-2.3447,1.0247-.4863.497-.7297,1.1078-.7297,1.8322,0,.6832.2744,1.2528.8232,1.7079.5484.4558,1.2369.6832,2.0652.6832,1.0555,0,1.9717-.2221,2.7482-.6677.7765-.4449,1.3868-1.0504,1.832-1.8165.4451-.7658.6677-1.6149.6677-2.5466v-4.2544c0-.9107-.3368-1.6506-1.0092-2.2204-.6728-.569-1.558-.854-2.6551-.854-.9523,0-1.7963.2436-2.5307.7299-.7353.4866-1.2785,1.1335-1.6306,1.9407l-2.5154-1.3042c.3109-.7656.8075-1.4542,1.4909-2.0652.683-.6104,1.4798-1.0916,2.3909-1.444.9107-.3517,1.8634-.528,2.8569-.528,1.2836,0,2.4118.2436,3.3849.7299.9731.4866,1.7339,1.1596,2.2826,2.0184.5484.8593.8228,1.8583.8228,2.9967v11.3658h-2.8259v-3.1676l.528.1865c-.3521.6628-.8283,1.2422-1.4285,1.7389-.6006.497-1.304.8905-2.1115,1.1802s-1.6876.4347-2.6399.4347Z"/>
      <path class="cls-1" d="M146.6978,531.2849c-1.4701,0-2.8157-.2746-4.0369-.823-1.2216-.5484-2.2567-1.2989-3.1054-2.2514-.8491-.9521-1.4595-2.0187-1.832-3.1986l2.6394-1.0869c.559,1.4907,1.3919,2.6348,2.4997,3.4316,1.1073.7971,2.4067,1.1955,3.8976,1.1955.9107,0,1.7079-.1446,2.3909-.4347.6834-.2897,1.2161-.6987,1.5992-1.2267.3831-.5278.5747-1.1437.5747-1.8477,0-.9729-.2748-1.7438-.8232-2.3134-.5488-.5692-1.3507-.9986-2.4067-1.2887l-4.2544-1.3044c-1.6769-.5171-2.9605-1.3352-3.8504-2.4532-.8907-1.118-1.3354-2.4014-1.3354-3.8506,0-1.2626.305-2.3757.9162-3.3384.6104-.9627,1.4595-1.7181,2.5464-2.2669,1.0865-.5484,2.3234-.823,3.7107-.823s2.6445.2485,3.7731.7452c1.1282.497,2.0855,1.1647,2.8726,2.0031.7866.8383,1.3664,1.7961,1.7389,2.8724l-2.6084,1.0869c-.497-1.3044-1.2424-2.2928-2.2359-2.9656-.9939-.6726-2.1637-1.0094-3.5093-1.0094-.8283,0-1.558.1397-2.1892.4192-.6316.2795-1.118.6832-1.4595,1.2112s-.5123,1.1543-.5123,1.8787c0,.8493.2684,1.6047.8075,2.2669.5377.6628,1.3554,1.17,2.453,1.5217l3.8818,1.149c1.8214.559,3.1984,1.3562,4.1303,2.3912.9315,1.0356,1.3974,2.319,1.3974,3.8508,0,1.263-.3262,2.381-.9782,3.3539-.6524.9733-1.5529,1.7341-2.7019,2.2824s-2.4793.823-3.9906.823Z"/>
      <path class="cls-1" d="M162.9078,531.2849c-1.0976,0-2.0647-.202-2.9032-.6057s-1.496-.9625-1.9721-1.6769c-.4766-.7142-.714-1.537-.714-2.4687,0-.8899.1911-1.6924.5743-2.4067.3827-.7142.9829-1.3199,1.801-1.8167.8177-.497,1.8481-.8487,3.0901-1.0559l6.2108-1.0247v2.4222l-5.5588.9317c-1.0768.1863-1.8583.528-2.3447,1.0247-.4863.497-.7297,1.1078-.7297,1.8322,0,.6832.2744,1.2528.8232,1.7079.5484.4558,1.2369.6832,2.0652.6832,1.0555,0,1.9717-.2221,2.7482-.6677.7765-.4449,1.3868-1.0504,1.832-1.8165.4451-.7658.6677-1.6149.6677-2.5466v-4.2544c0-.9107-.3368-1.6506-1.0092-2.2204-.6728-.569-1.558-.854-2.6551-.854-.9523,0-1.7963.2436-2.5307.7299-.7353.4866-1.2785,1.1335-1.6306,1.9407l-2.5154-1.3042c.3109-.7656.8075-1.4542,1.4909-2.0652.683-.6104,1.4798-1.0916,2.3909-1.444.9107-.3517,1.8634-.528,2.8569-.528,1.2836,0,2.4118.2436,3.3849.7299.9731.4866,1.7339,1.1596,2.2826,2.0184.5484.8593.8228,1.8583.8228,2.9967v11.3658h-2.8259v-3.1676l.528.1865c-.3521.6628-.8283,1.2422-1.4285,1.7389-.6006.497-1.304.8905-2.1115,1.1802s-1.6876.4347-2.6399.4347ZM163.4667,511.0377l2.4534-4.9066h3.9128l-3.4779,4.9066h-2.8883Z"/>
      <path class="cls-1" d="M175.8573,530.9122v-16.7381h2.8259v3.2606l-.466-.2795c.4141-1.0557,1.0819-1.8787,2.0031-2.4687.9209-.59,2.0031-.8852,3.2451-.8852,1.2004,0,2.2716.2693,3.2141.8075.9417.5386,1.6871,1.2838,2.2359,2.2359.5484.9525.8228,2.0293.8228,3.2296v10.8379h-2.9189v-9.9061c0-.9317-.1661-1.7181-.497-2.3602-.3313-.6416-.8024-1.1437-1.4127-1.5062-.6112-.3619-1.3099-.5435-2.0962-.5435-.7871,0-1.4858.1816-2.0962.5435-.6112.3625-1.0925.8695-1.4442,1.5217-.3521.6522-.528,1.4338-.528,2.3447v9.9061h-2.8879Z"/>
      <path class="cls-1" d="M201.6323,531.2849c-1.6357,0-3.0901-.3829-4.3631-1.1492-1.2734-.7656-2.2724-1.8112-2.9971-3.1364-.7246-1.3246-1.0865-2.8153-1.0865-4.4718,0-1.6767.3619-3.1674,1.0865-4.4716.7246-1.3044,1.7237-2.3393,2.9971-3.1054,1.273-.7658,2.7274-1.1492,4.3631-1.1492,1.0967,0,2.1217.1971,3.074.5902.9523.3935,1.7908.9213,2.5154,1.5837.7246.6628,1.2526,1.4391,1.5839,2.3289l-2.5774,1.2422c-.3937-.8695-.9939-1.5784-1.8014-2.1272-.807-.5484-1.7389-.823-2.7945-.823-1.0147,0-1.9309.2591-2.7486.7765-.8181.5178-1.4646,1.2218-1.9407,2.1117-.4766.8903-.7144,1.9152-.7144,3.0744,0,1.118.2379,2.1272.7144,3.0277.4762.9007,1.1226,1.61,1.9407,2.1272.8177.5178,1.7339.7765,2.7486.7765,1.0555,0,1.9874-.2742,2.7945-.823.8075-.5484,1.4076-1.2781,1.8014-2.1894l2.5774,1.3044c-.3313.8695-.8593,1.641-1.5839,2.3134-.7246.673-1.5631,1.2063-2.5154,1.5992-.9523.3931-1.9772.5902-3.074.5902Z"/>
      <path class="cls-1" d="M212.594,530.9122v-23.5079h2.8879v10.0304l-.528-.2795c.4141-1.0557,1.0819-1.8787,2.0031-2.4687.9209-.59,2.0031-.8852,3.2451-.8852,1.2004,0,2.2716.2693,3.2141.8075.9417.5386,1.6871,1.2838,2.2359,2.2359.5484.9525.8228,2.0293.8228,3.2296v10.8379h-2.9189v-9.9061c0-.9317-.1708-1.7181-.5123-2.3602-.3419-.6416-.813-1.1437-1.4132-1.5062-.6006-.3619-1.2942-.5435-2.0805-.5435-.7663,0-1.4599.1816-2.0809.5435-.621.3625-1.1078.8695-1.4595,1.5217-.3521.6522-.528,1.4338-.528,2.3447v9.9061h-2.8879Z"/>
      <path class="cls-1" d="M238.3061,531.2849c-1.6145,0-3.054-.3829-4.3164-1.1492-1.2632-.7656-2.2567-1.8165-2.9814-3.1519-.7246-1.3352-1.0865-2.8308-1.0865-4.4873,0-1.6769.3568-3.1674,1.0712-4.4718.714-1.3042,1.6871-2.3338,2.9189-3.0897,1.2314-.7556,2.6135-1.1337,4.1456-1.1337,1.2424,0,2.3447.2228,3.3076.6677.9625.4456,1.7802,1.0457,2.453,1.8012.6728.7561,1.1906,1.6147,1.5529,2.5774.3619.9627.5433,1.9617.5433,2.9969,0,.2279-.0153.4812-.0463.7607s-.0675.5435-.1087.792h-13.726v-2.4844h12.049l-1.3664,1.118c.1865-1.0763.0824-2.0388-.3105-2.8881-.3937-.8487-.9735-1.5215-1.7389-2.0184-.7663-.4968-1.6357-.7452-2.6088-.7452s-1.863.2485-2.6704.7452c-.8075.497-1.434,1.2063-1.8787,2.1272-.4456.9215-.6265,2.0138-.5437,3.2761-.0828,1.2218.1087,2.2933.5747,3.2141.466.9215,1.1282,1.6357,1.9874,2.1427.8589.5076,1.7959.7609,2.8102.7609,1.118,0,2.0601-.2587,2.8259-.7765.7658-.5171,1.3868-1.18,1.8634-1.9874l2.4224,1.2422c-.3317.7663-.844,1.465-1.5372,2.0962-.6941.6318-1.5117,1.1335-2.4534,1.5062-.9421.3725-1.993.559-3.1521.559Z"/>
      <path class="cls-1" d="M248.0258,530.9122v-2.4532l9.9686-12.577.4965,1.0559h-9.9682v-2.7639h12.5456v2.4534l-9.8751,12.6078-.4965-1.0869h10.4341v2.7639h-13.105Z"/>
    </g>
  </g>
</svg>