<?xml version="1.0" encoding="UTF-8"?>
<svg id="Capa_2" xmlns="http://www.w3.org/2000/svg" viewBox="0 0 236.38 236.38">
  <defs>
    <style>
      .cls-1 {
        fill: #789f90;
      }

      .cls-2 {
        fill: #c2e189;
      }

      .cls-3 {
        fill: #173f35;
      }
    </style>
  </defs>
  <g id="Capa_1-2" data-name="Capa_1">
    <circle class="cls-3" cx="118.19" cy="118.19" r="118.19"/>
    <g>
      <path class="cls-1" d="M97.1,177.6c-.64-.68-1.51-1.62-2.35-2.7-8.39-10.87-11.03-23.33-7.63-36.02.45-1.68.62-3.17.5-4.42-.16-1.59-.43-3.21-.83-4.94-.7-3-1.94-6.15-3.77-9.63-1.63-3.09-2.65-6.03-3.2-9.24-1.7-8.7,3.23-17.39,12.92-22.71l.36-.18c1.79-.88,2.71-1.28,3.52-1.64.39-.17.77-.34,1.27-.58l.24-.11c.86-.4,1.73-.81,2.6-1.19,1.15-.5,2.06-.89,3.89-3.67,2.82-4.27,5.81-14.26,8.45-23.08.04-.15.09-.29.13-.44l-6.16.64-26.46,2.73-29.36,3.03,12.95,125.52,29.36-3.03,1.65-.17,7.24-.75c-.62-.87-1.19-1.73-1.71-2.55-1.06-1.64-2.16-3.34-3.6-4.89"/>
      <path class="cls-1" d="M172.08,60.43c-3.99,6.34-8.76,13.1-13.77,20.2-14.45,20.47-31.54,44.7-34.43,66.6l21.83-2.25c30.84-3.18,50.18-21.22,47.17-50.41-1.69-16.4-9.25-27.75-20.8-34.14"/>
      <path class="cls-2" d="M122.13,123.6c.24-.54.48-1.08.73-1.62.04-.1.09-.2.13-.3,1.18-2.59,2.47-5.17,3.84-7.74.01-.03.03-.05.04-.08.33-.61.66-1.23.99-1.84.04-.08.08-.15.13-.23.31-.56.62-1.12.93-1.68.07-.12.13-.23.2-.35.29-.52.59-1.04.89-1.56.07-.13.15-.25.22-.38.3-.51.59-1.02.89-1.52.08-.14.16-.27.24-.41.3-.5.59-.99.89-1.49.09-.14.17-.28.26-.43.3-.49.6-.98.9-1.47.09-.14.18-.28.26-.43.3-.49.61-.98.91-1.46.09-.14.18-.28.27-.42.31-.49.62-.98.93-1.47.08-.13.17-.26.25-.39.32-.5.64-.99.96-1.49.08-.13.16-.25.24-.38.33-.5.66-1.01.99-1.51.07-.11.14-.22.21-.33.34-.52.69-1.04,1.03-1.56.06-.09.12-.18.17-.26.37-.55.73-1.09,1.1-1.63.04-.06.08-.11.12-.17.39-.58.78-1.15,1.17-1.73.01-.02.03-.05.04-.07,5.41-7.94,10.93-15.57,15.88-22.72,2.25-3.25,4.39-6.42,6.33-9.45-8.07-2.65-17.51-3.43-27.88-2.36,0,0-14.14,1.46-14.14,1.47-.8,2.63-1.58,5.28-2.37,7.89-.19.61-.37,1.22-.56,1.83-.04.13-.08.26-.12.39-.16.52-.32,1.04-.49,1.56-.06.19-.12.39-.18.58-.15.47-.3.93-.44,1.39-.07.22-.14.45-.21.67-.14.43-.28.86-.43,1.29-.08.24-.16.48-.24.71-.14.4-.28.8-.41,1.19-.09.25-.17.49-.26.74-.13.37-.26.73-.4,1.1-.09.25-.18.51-.28.75-.13.35-.26.69-.4,1.03-.09.24-.19.49-.28.73-.13.34-.27.66-.4.98-.09.23-.19.46-.28.69-.14.32-.28.62-.41.93-.1.21-.19.43-.29.64-.15.31-.29.6-.44.9-.09.18-.18.37-.27.55-.16.31-.33.61-.49.9-.08.14-.16.3-.24.43-.24.42-.49.82-.74,1.2-.36.55-.71,1.04-1.06,1.5-.34.46-.68.87-1.01,1.25-.49.57-.97,1.05-1.44,1.47-1.4,1.26-2.71,1.95-4.06,2.53-.88.38-1.75.8-2.63,1.2-.39.18-.71.33-1.02.46-.31.14-.6.26-.92.41-.65.29-1.43.64-2.72,1.28-.86.47-1.65.96-2.38,1.48-1.1.77-2.05,1.58-2.87,2.42-.54.56-1.03,1.14-1.45,1.72-1.9,2.63-2.55,5.47-1.99,8.19.08.5.19,1.01.31,1.54.26,1.05.62,2.17,1.14,3.39.26.61.56,1.25.91,1.91.49.92.96,1.86,1.39,2.8.88,1.89,1.66,3.83,2.29,5.82.32.99.59,2,.83,3.02.12.51.2,1.01.3,1.51.31,1.51.56,3.01.71,4.54.24,2.49-.1,4.99-.74,7.4-3.63,13.57,2.15,23.5,6.17,28.71.57.74,1.2,1.42,1.84,2.1,1.18,1.27,2.15,2.55,3,3.77.42.61.81,1.21,1.18,1.78,1.12,1.72,2.06,3.25,3.16,4.37.37.38.74.7,1.15.98.41.28.84.5,1.32.66.93.32,1.76.4,2.73.3l.92-.09,2.35-.24,2.31-.24,1.39-.14h.11c.27-.04.53-.1.78-.17.31-.09.6-.21.88-.35.27-.14.53-.31.75-.51.04-.03.07-.06.11-.09.09-.08.17-.18.25-.27.06-.08.12-.15.18-.24.06-.08.12-.17.17-.26.1-.18.18-.36.24-.57.02-.07.04-.15.05-.22.04-.17.08-.35.1-.55,0-.08.02-.16.02-.24.02-.27.02-.56-.01-.87-.03-.27-.08-.5-.14-.72-.02-.06-.04-.13-.06-.19-.06-.15-.12-.3-.2-.43-.03-.05-.05-.1-.08-.14-.1-.15-.21-.27-.34-.39-.07-.06-.14-.12-.21-.17-.07-.06-.15-.11-.24-.16-.35-.22-.77-.41-1.26-.57-.67-.22-1.44-.42-2.35-.68-.82-.27-1.57-1.15-2.25-2.45-.21-.45-.42-.91-.62-1.36-.25-.6-.5-1.19-.72-1.79-.08-.2-.14-.4-.21-.6-.15-.4-.29-.8-.43-1.2-.08-.24-.15-.48-.22-.73-.11-.36-.23-.72-.33-1.09-.07-.26-.14-.52-.21-.79-.09-.34-.18-.69-.27-1.04-.07-.27-.12-.54-.18-.81-.08-.34-.15-.68-.22-1.02-.05-.27-.1-.55-.14-.82-.06-.34-.12-.68-.17-1.02-.04-.28-.08-.56-.11-.84-.04-.34-.09-.67-.13-1.01-.03-.28-.06-.57-.08-.85-.03-.34-.06-.67-.09-1.01-.02-.29-.03-.57-.05-.86-.02-.34-.03-.67-.04-1.01,0-.29-.01-.57-.02-.86,0-.34,0-.68,0-1.02,0-.29,0-.57.02-.86,0-.34.02-.68.03-1.02.01-.29.03-.57.04-.86.02-.34.04-.69.07-1.03.02-.29.05-.57.07-.86.03-.35.07-.69.1-1.04.03-.29.07-.57.1-.86.04-.35.09-.7.14-1.04.04-.28.08-.57.13-.86.05-.35.11-.7.17-1.05.05-.28.1-.57.15-.85.07-.35.13-.7.21-1.06.06-.28.11-.57.18-.85.08-.36.16-.71.24-1.07.06-.28.13-.56.2-.84.09-.36.18-.73.28-1.09.07-.27.14-.55.21-.82.1-.37.21-.74.31-1.1.08-.27.15-.54.24-.81.11-.37.23-.75.34-1.12.08-.27.17-.53.25-.8.12-.38.25-.77.38-1.15.09-.25.17-.51.26-.76.14-.4.28-.79.42-1.19.09-.24.17-.49.26-.73.15-.41.31-.82.47-1.23.09-.23.17-.46.26-.68.17-.43.35-.87.53-1.3.08-.2.16-.41.25-.61.2-.48.4-.95.61-1.43.07-.16.14-.32.21-.48"/>
    </g>
  </g>
</svg>