<?xml version="1.0" encoding="UTF-8"?>
<svg id="Capa_2" xmlns="http://www.w3.org/2000/svg" viewBox="0 0 236.3991 236.3991">
  <defs>
    <style>
      .cls-1 {
        fill: #f21038;
      }

      .cls-2 {
        fill: #111114;
      }
    </style>
  </defs>
  <g id="Capa_2-2" data-name="Capa_2">
    <g>
      <g id="Capa_1-2">
        <circle class="cls-2" cx="118.1996" cy="118.1996" r="118.19"/>
      </g>
      <path id="toro" class="cls-1" d="M168.4873,68.7846c-.0306.0007-.0315.0505-.0009.0522,6.6677.3777,12.2208,5.7613,12.4826,12.7683.2634,7.0494-5.342,12.966-12.3577,13.7034l-104.4812,10.9814c-7.0157.7374-13.7287-3.8845-14.9367-10.8346-1.2007-6.9083,3.1117-13.3288,9.5552-15.0846.0295-.008.0183-.0565-.0118-.0509-14.0011,2.6214-23.7037,16.0054-21.2299,30.5244,2.3667,13.891,15.5877,23.2641,29.6017,21.7911l14.5571-1.53,34.7784,35.9975c1.9732,2.0424,4.6222,2.908,7.1792,2.7004,2.5443-.3286,4.9554-1.726,6.4609-4.134l26.5341-42.4417,14.5571-1.53c14.014-1.4729,24.9973-13.3899,24.4242-27.4695-.599-14.7161-12.8722-25.7903-27.1124-25.4434Z"/>
    </g>
  </g>
</svg>