<?xml version="1.0" encoding="UTF-8"?>
<svg id="Capa_2" xmlns="http://www.w3.org/2000/svg" viewBox="0 0 168.48 154.45">
  <defs>
    <style>
      .cls-1 {
        fill: #789f90;
      }

      .cls-2 {
        fill: #c2e189;
      }
    </style>
  </defs>
  <g id="Capa_1-2" data-name="Capa_1">
    <g>
      <path class="cls-1" d="M41.51,144.65c-.69-.91-1.64-2.16-2.52-3.58-8.84-14.28-10.49-29.77-4.77-44.78.76-1.99,1.15-3.78,1.16-5.32.01-1.96-.12-3.95-.39-6.11-.48-3.74-1.58-7.73-3.38-12.19-1.6-3.97-2.47-7.67-2.74-11.64-.98-10.8,6.12-20.75,18.57-26.01l.46-.18c2.29-.84,3.45-1.22,4.49-1.55.5-.16.98-.32,1.62-.54l.31-.11c1.1-.38,2.2-.76,3.31-1.12,1.46-.46,2.61-.83,5.19-3.98,3.96-4.84,8.86-16.62,13.18-27.02.07-.17.14-.35.22-.52H0v154.45s47.09,0,47.09,0c-.65-1.13-1.27-2.35-1.81-3.41-1.08-2.13-2.2-4.33-3.77-6.4"/>
      <path class="cls-1" d="M147.46,11.49c-5.66,7.22-12.3,14.84-19.29,22.85-20.15,23.1-43.99,50.43-50.25,76.71h26.84c37.92,0,63.72-19.52,63.72-55.41,0-20.17-7.77-34.92-21.02-44.15"/>
      <path class="cls-2" d="M78.75,82.08c.36-.63.72-1.25,1.09-1.88.06-.12.13-.23.2-.35,1.77-3,3.65-5.98,5.64-8.94.02-.03.04-.06.06-.09.48-.7.95-1.41,1.44-2.11.06-.09.12-.17.18-.26.44-.64.89-1.29,1.35-1.93.09-.13.19-.26.28-.4.42-.6.85-1.19,1.28-1.79.1-.14.21-.29.31-.43.42-.58.85-1.16,1.27-1.74.12-.16.23-.31.35-.47.42-.57.84-1.13,1.27-1.7.12-.16.25-.32.37-.49.42-.56.85-1.12,1.27-1.67.12-.16.25-.32.38-.49.43-.56.86-1.11,1.29-1.67.13-.16.25-.32.38-.48.44-.56.88-1.12,1.32-1.67.12-.15.24-.29.35-.44.45-.56.9-1.13,1.35-1.69.11-.14.23-.28.34-.43.46-.57.93-1.14,1.39-1.72.1-.12.2-.25.3-.37.48-.59.97-1.18,1.45-1.77.08-.1.16-.2.25-.3.51-.62,1.03-1.23,1.54-1.85.05-.06.11-.13.16-.19.55-.65,1.09-1.3,1.64-1.95.02-.02.04-.05.06-.08,7.58-8.98,15.25-17.57,22.17-25.66,3.14-3.68,6.15-7.26,8.89-10.71-9.49-4.23-20.87-6.37-33.62-6.37,0,0-17.39,0-17.39.01-1.3,3.1-2.59,6.23-3.88,9.3-.31.72-.61,1.44-.91,2.16-.06.15-.13.31-.19.46-.26.62-.52,1.23-.79,1.84-.1.23-.19.46-.29.68-.24.55-.48,1.1-.72,1.64-.12.26-.23.53-.35.79-.23.51-.45,1.01-.68,1.51-.12.28-.25.56-.38.83-.22.47-.43.93-.65,1.4-.14.29-.27.58-.41.87-.21.43-.41.86-.62,1.29-.14.29-.29.59-.43.88-.2.41-.41.81-.61,1.21-.14.28-.29.57-.43.85-.21.39-.41.76-.62,1.15-.14.26-.29.54-.43.8-.21.37-.41.72-.62,1.08-.14.25-.29.5-.43.74-.22.36-.43.7-.65,1.04-.13.21-.26.43-.4.64-.24.36-.47.7-.71,1.03-.11.16-.23.34-.34.5-.35.48-.7.94-1.05,1.37-.51.62-1,1.18-1.47,1.69-.47.51-.93.98-1.38,1.39-.67.63-1.31,1.16-1.93,1.61-1.86,1.36-3.55,2.03-5.26,2.57-1.12.36-2.23.75-3.35,1.13-.49.17-.9.31-1.3.44-.39.13-.76.25-1.17.38-.82.27-1.82.61-3.47,1.22-1.1.46-2.13.96-3.08,1.5-1.43.8-2.7,1.66-3.8,2.59-.73.61-1.39,1.25-1.98,1.91-2.64,2.97-3.79,6.34-3.45,9.71.04.62.1,1.25.19,1.91.18,1.32.48,2.72.96,4.27.24.78.53,1.59.87,2.44.48,1.19.93,2.38,1.35,3.59.83,2.41,1.54,4.87,2.06,7.36.26,1.25.47,2.5.63,3.77.08.63.12,1.25.18,1.88.18,1.88.3,3.73.29,5.61-.02,3.06-.75,6.06-1.83,8.91-6.12,16.06-.33,28.87,3.9,35.7.6.97,1.28,1.88,1.97,2.79,1.28,1.69,2.3,3.37,3.17,4.96.44.79.84,1.57,1.22,2.31,1.15,2.24,2.1,4.21,3.29,5.72.4.5.82.95,1.28,1.34.46.39.96.72,1.52.97,1.09.5,2.09.71,3.29.71h8.68c.33,0,.65-.04.96-.09.39-.06.76-.18,1.12-.31.35-.14.68-.31.98-.52.05-.04.1-.06.14-.1.12-.09.23-.19.33-.3.09-.08.17-.17.24-.26.08-.09.16-.19.24-.29.14-.2.26-.42.37-.66.04-.08.06-.17.09-.26.08-.21.14-.42.19-.65.02-.09.04-.19.06-.29.05-.33.09-.68.09-1.06,0-.33-.04-.62-.08-.89-.02-.08-.04-.16-.05-.24-.05-.19-.11-.38-.19-.54-.03-.06-.05-.13-.08-.19-.1-.19-.22-.36-.36-.52-.07-.08-.15-.16-.24-.24-.08-.08-.17-.16-.27-.23-.4-.32-.89-.59-1.46-.85-.78-.35-1.7-.69-2.77-1.12-.96-.43-1.77-1.59-2.43-3.27-.2-.58-.4-1.16-.58-1.73-.24-.76-.45-1.51-.65-2.27-.07-.25-.12-.5-.18-.75-.13-.51-.26-1.01-.37-1.52-.06-.3-.12-.61-.18-.91-.09-.45-.19-.91-.26-1.36-.06-.33-.1-.65-.15-.98-.07-.43-.14-.86-.19-1.29-.05-.33-.08-.67-.11-1.01-.05-.42-.1-.85-.14-1.27-.03-.34-.05-.68-.07-1.02-.03-.42-.06-.84-.08-1.26-.02-.34-.02-.69-.03-1.03-.01-.42-.02-.83-.03-1.25,0-.35,0-.7,0-1.05,0-.41,0-.83.02-1.24.01-.35.03-.7.05-1.05.02-.41.04-.82.07-1.23.02-.35.06-.7.09-1.05.04-.41.08-.82.12-1.24.04-.35.08-.7.13-1.05.05-.41.11-.83.16-1.24.05-.35.11-.69.16-1.04.06-.41.14-.83.21-1.24.06-.35.13-.69.19-1.04.08-.42.17-.83.26-1.25.07-.34.15-.69.23-1.03.1-.42.19-.83.3-1.25.08-.34.17-.68.26-1.03.11-.42.22-.84.34-1.26.1-.34.19-.68.29-1.02.12-.42.25-.84.38-1.26.11-.34.21-.68.32-1.01.14-.42.28-.85.43-1.27.11-.33.23-.66.35-.99.15-.43.31-.86.47-1.29.12-.32.24-.65.36-.97.17-.43.34-.87.52-1.3.13-.32.26-.64.39-.96.18-.44.37-.88.56-1.32.14-.31.27-.62.41-.94.2-.45.41-.9.61-1.35.14-.3.27-.6.41-.89.22-.46.44-.93.66-1.39.14-.28.27-.57.41-.85.24-.48.48-.96.73-1.44.14-.27.27-.53.41-.8.26-.51.53-1.01.8-1.52.13-.24.25-.48.38-.72.3-.56.61-1.11.92-1.66.11-.19.21-.38.31-.56"/>
    </g>
  </g>
</svg>