<?xml version="1.0" encoding="UTF-8"?>
<svg id="Capa_2" xmlns="http://www.w3.org/2000/svg" viewBox="0 0 391.39 116.22">
  <defs>
    <style>
      .cls-1 {
        fill: #789f90;
      }

      .cls-2 {
        fill: #c2e189;
      }
    </style>
  </defs>
  <g id="Capa_1-2" data-name="Capa_1">
    <g>
      <path class="cls-2" d="M113.45,0c6.36,0,10.69,3.16,10.69,9.34s-4.33,9.3-10.69,9.3h-5.12v7.27h-6.4V0h11.52ZM108.33,6.02v6.59h4.56c2.75,0,4.48-.98,4.48-3.28s-1.73-3.31-4.48-3.31h-4.56Z"/>
      <path class="cls-2" d="M126.67,25.9L136.99,0h8.62l10.31,25.9h-7.12l-2.15-5.72h-10.8l-2.18,5.72h-7ZM138,14.53h6.51l-3.24-8.55-3.28,8.55Z"/>
      <path class="cls-2" d="M182.58,15.17c0,6.66-3.39,11.11-11.41,11.11s-11.41-4.44-11.41-11.11V0h6.78v15.28c0,3.16,1.54,4.59,4.63,4.59s4.63-1.43,4.63-4.59V0h6.78v15.17Z"/>
      <path class="cls-2" d="M195.2,0v19.88h12.65v6.02h-19.05V0h6.4Z"/>
      <path class="cls-2" d="M210.38,25.9L220.69,0h8.62l10.31,25.9h-7.12l-2.15-5.72h-10.8l-2.18,5.72h-7ZM221.71,14.53h6.51l-3.24-8.55-3.28,8.55Z"/>
      <g>
        <path class="cls-2" d="M69.32,44.95c6.36,0,10.69,3.16,10.69,9.34s-4.33,9.3-10.69,9.3h-5.12v7.27h-6.4v-25.9h11.52ZM64.2,50.97v6.59h4.56c2.75,0,4.48-.98,4.48-3.28s-1.73-3.31-4.48-3.31h-4.56Z"/>
        <path class="cls-2" d="M105.47,44.95v6.02h-14.16v3.84h12.27v6.02h-12.27v3.99h14.16v6.02h-20.56v-25.9h20.56Z"/>
        <path class="cls-2" d="M123.2,44.95c6.29,0,10.47,2.79,10.47,8.85,0,4.4-3.01,7.23-7.08,7.83l7.53,9.22h-8.02l-6.59-9.11h-2.18v9.11h-6.4v-25.9h12.27ZM117.33,50.97v5.91h5.65c2.48,0,3.99-.9,3.99-3.01,0-2-1.51-2.9-3.99-2.9h-5.65Z"/>
        <path class="cls-2" d="M159.39,44.95v6.02h-14.16v3.84h12.27v6.02h-12.27v3.99h14.16v6.02h-20.56v-25.9h20.56Z"/>
        <path class="cls-2" d="M171.25,44.95v19.88h12.65v6.02h-19.05v-25.9h6.4Z"/>
        <path class="cls-2" d="M195.2,44.95v19.88h12.65v6.02h-19.05v-25.9h6.4Z"/>
        <path class="cls-2" d="M211.62,57.94c0-7.87,5.69-13.36,13.4-13.36s13.36,5.5,13.36,13.36-5.69,13.29-13.36,13.29-13.4-5.5-13.4-13.29ZM231.61,57.94c0-4.29-2.82-6.97-6.59-6.97s-6.63,2.67-6.63,6.97,2.86,6.89,6.63,6.89,6.59-2.64,6.59-6.89ZM227.36,42.73h-5.5l3.69-4.78h7.08l-5.27,4.78Z"/>
      </g>
      <g>
        <path class="cls-2" d="M10.05,89.9c5.42,0,9.34,2.64,9.34,8.28,0,5.35-3.92,8.13-9.34,8.13H2.48v9.49H0v-25.9h10.05ZM2.48,92.24v11.71h7.42c3.99,0,6.89-1.81,6.89-5.76,0-4.22-2.86-5.95-6.89-5.95H2.48Z"/>
        <path class="cls-2" d="M24.78,102.89c0-7.87,5.65-13.36,13.14-13.36s13.06,5.5,13.06,13.36-5.65,13.29-13.06,13.29-13.14-5.5-13.14-13.29ZM48.38,102.89c0-6.44-4.52-10.88-10.47-10.88s-10.54,4.44-10.54,10.88,4.56,10.8,10.54,10.8,10.47-4.44,10.47-10.8Z"/>
        <path class="cls-2" d="M66.99,89.9c8.32,0,13.97,5.2,13.97,12.99s-5.65,12.91-13.97,12.91h-8.51v-25.9h8.51ZM60.96,92.24v21.23h6.02c6.89,0,11.44-4.22,11.44-10.58s-4.55-10.65-11.44-10.65h-6.02Z"/>
        <path class="cls-2" d="M86.98,102.89c0-7.87,5.65-13.36,13.14-13.36s13.06,5.5,13.06,13.36-5.65,13.29-13.06,13.29-13.14-5.5-13.14-13.29ZM110.59,102.89c0-6.44-4.52-10.88-10.47-10.88s-10.54,4.44-10.54,10.88,4.56,10.8,10.54,10.8,10.47-4.44,10.47-10.8Z"/>
        <path class="cls-2" d="M123.17,89.9v23.57h15.02v2.33h-17.51v-25.9h2.48Z"/>
        <path class="cls-2" d="M142.86,102.89c0-7.87,5.65-13.36,13.14-13.36s13.06,5.5,13.06,13.36-5.65,13.29-13.06,13.29-13.14-5.5-13.14-13.29ZM166.47,102.89c0-6.44-4.52-10.88-10.47-10.88s-10.54,4.44-10.54,10.88,4.56,10.8,10.54,10.8,10.47-4.44,10.47-10.8Z"/>
        <path class="cls-2" d="M195.31,112.42v-8.36h-9.26v-2.15h11.75v11.78c-2.33,1.47-5.16,2.52-8.96,2.52-7.98,0-13.7-5.5-13.7-13.33s5.72-13.36,13.63-13.36c3.76,0,6.7,1.05,9.04,2.52v2.67c-2.18-1.51-5.16-2.86-8.96-2.86-6.55,0-11.11,4.52-11.11,11.03s4.56,10.96,11.11,10.96c2.52,0,4.67-.56,6.48-1.43Z"/>
        <path class="cls-2" d="M212.3,82.9l-4.44,4.74h-2.3l3.69-4.74h3.05ZM208.19,89.9v25.9h-2.48v-25.9h2.48Z"/>
        <path class="cls-2" d="M213.84,115.8l11.14-25.9h3.13l11.14,25.9h-2.75l-3.61-8.55h-12.73l-3.61,8.55h-2.71ZM221.11,105.04h10.84l-5.42-12.76-5.42,12.76Z"/>
      </g>
    </g>
    <g>
      <path class="cls-1" d="M296.19,108.45c-.52-.68-1.23-1.62-1.89-2.69-6.63-10.71-7.87-22.32-3.57-33.58.57-1.49.86-2.83.87-3.99,0-1.47-.09-2.97-.29-4.58-.36-2.81-1.19-5.79-2.53-9.14-1.2-2.97-1.85-5.75-2.05-8.73-.73-8.1,4.59-15.56,13.92-19.5l.34-.13c1.72-.63,2.59-.91,3.36-1.16.37-.12.74-.24,1.22-.41l.23-.08c.83-.29,1.65-.57,2.49-.84,1.1-.35,1.96-.62,3.89-2.98,2.97-3.63,6.64-12.46,9.88-20.26.05-.13.11-.26.16-.39h-57.15v115.73h35.27c-.49-.85-.92-1.69-1.32-2.49-.81-1.6-1.65-3.25-2.83-4.8"/>
      <path class="cls-1" d="M375.63,8.61c-4.24,5.41-9.22,11.12-14.47,17.13-15.11,17.32-32.98,37.81-37.67,57.52h20.13c28.43,0,47.78-14.63,47.78-41.55,0-15.12-5.83-26.18-15.76-33.11"/>
      <path class="cls-2" d="M324.11,61.54c.27-.47.54-.94.81-1.41.05-.09.1-.17.15-.26,1.32-2.25,2.74-4.49,4.23-6.7.01-.02.03-.05.04-.07.36-.53.71-1.06,1.08-1.58.04-.06.09-.13.14-.19.33-.48.67-.96,1.01-1.44.07-.1.14-.2.21-.3.32-.45.64-.9.96-1.34.08-.11.16-.21.23-.32.32-.44.64-.87.96-1.31.09-.12.17-.23.26-.35.32-.43.63-.85.95-1.27.09-.12.18-.24.28-.37.32-.42.64-.84.96-1.25.09-.12.19-.24.28-.36.32-.42.64-.83.97-1.25.1-.12.19-.24.28-.36.33-.42.66-.84.99-1.25.09-.11.18-.22.27-.33.34-.42.67-.85,1.01-1.27.09-.11.17-.21.26-.32.35-.43.69-.86,1.05-1.29.07-.09.15-.18.23-.28.36-.44.73-.89,1.09-1.32.06-.07.12-.15.18-.22.38-.46.77-.93,1.15-1.39.04-.05.08-.1.12-.15.41-.49.82-.98,1.23-1.46.01-.02.03-.04.05-.06,5.68-6.73,11.43-13.17,16.62-19.24,2.36-2.76,4.61-5.44,6.67-8.03-7.12-3.17-15.65-4.78-25.21-4.78,0,0-13.04,0-13.04,0-.97,2.32-1.94,4.67-2.91,6.98-.23.54-.46,1.08-.68,1.62-.05.12-.1.23-.15.34-.2.46-.39.92-.59,1.38-.07.17-.15.34-.22.51-.18.42-.36.82-.54,1.23-.09.2-.17.39-.26.59-.17.38-.34.76-.51,1.13-.09.21-.19.42-.28.63-.16.35-.33.7-.49,1.05-.1.22-.2.44-.3.65-.15.33-.31.64-.47.96-.11.22-.21.44-.32.66-.15.31-.31.61-.46.91-.11.21-.22.43-.32.64-.15.29-.31.57-.46.86-.11.2-.22.41-.32.6-.15.28-.31.54-.46.81-.11.18-.21.38-.32.56-.16.27-.32.52-.49.78-.1.16-.2.32-.3.48-.18.27-.35.52-.53.78-.09.12-.17.26-.26.37-.26.36-.52.7-.79,1.03-.38.46-.75.89-1.1,1.27-.35.38-.7.73-1.03,1.05-.5.47-.98.87-1.45,1.21-1.4,1.02-2.66,1.52-3.95,1.93-.84.27-1.67.56-2.51.85-.37.13-.68.23-.97.33-.29.1-.57.18-.88.28-.62.2-1.36.45-2.6.91-.82.35-1.59.72-2.31,1.12-1.07.6-2.02,1.25-2.85,1.94-.55.46-1.05.94-1.48,1.43-1.98,2.22-2.84,4.75-2.59,7.28.03.46.07.94.14,1.43.14.99.36,2.04.72,3.2.18.58.4,1.19.65,1.83.36.89.7,1.78,1.01,2.69.63,1.81,1.15,3.65,1.54,5.52.19.94.35,1.88.48,2.83.06.48.09.94.14,1.41.14,1.41.23,2.8.22,4.2-.02,2.29-.56,4.54-1.38,6.68-4.59,12.04-.25,21.64,2.92,26.77.45.73.96,1.41,1.48,2.09.96,1.27,1.72,2.53,2.38,3.72.33.6.63,1.18.91,1.74.86,1.68,1.58,3.16,2.47,4.29.3.38.61.71.96,1,.35.29.72.54,1.14.73.82.38,1.57.53,2.47.53h6.51c.25,0,.49-.03.72-.07.29-.05.57-.13.84-.23.26-.1.51-.23.73-.39.04-.03.07-.05.11-.07.09-.07.17-.15.25-.22.06-.06.13-.13.18-.2.06-.07.12-.14.18-.22.1-.15.2-.32.28-.5.03-.06.05-.13.07-.19.06-.15.11-.32.14-.49.02-.07.03-.14.04-.22.04-.25.07-.51.07-.79,0-.25-.03-.46-.06-.67-.01-.06-.03-.12-.04-.18-.04-.15-.09-.28-.14-.41-.02-.05-.03-.1-.06-.14-.07-.14-.17-.27-.27-.39-.05-.06-.12-.12-.18-.18-.06-.06-.13-.12-.2-.17-.3-.24-.67-.44-1.1-.64-.59-.27-1.28-.52-2.08-.84-.72-.32-1.33-1.19-1.82-2.45-.15-.43-.3-.87-.44-1.3-.18-.57-.34-1.13-.49-1.7-.05-.19-.09-.38-.14-.57-.1-.38-.19-.76-.28-1.14-.05-.23-.09-.46-.14-.68-.07-.34-.14-.68-.2-1.02-.04-.25-.08-.49-.11-.74-.05-.32-.1-.65-.15-.97-.03-.25-.06-.5-.09-.76-.04-.32-.07-.64-.1-.95-.02-.26-.04-.51-.05-.77-.02-.32-.04-.63-.06-.95-.01-.26-.02-.52-.02-.78,0-.31-.02-.62-.02-.93,0-.26,0-.52,0-.78,0-.31,0-.62.02-.93.01-.26.02-.53.04-.79.02-.31.03-.62.05-.92.02-.26.04-.52.06-.79.03-.31.06-.62.09-.93.03-.26.06-.52.1-.79.04-.31.08-.62.12-.93.04-.26.08-.52.12-.78.05-.31.1-.62.16-.93.05-.26.1-.52.15-.78.06-.31.13-.62.19-.94.05-.26.11-.51.17-.77.07-.31.15-.63.22-.94.06-.26.13-.51.2-.77.08-.31.17-.63.26-.94.07-.25.15-.51.22-.76.09-.31.19-.63.29-.94.08-.25.16-.51.24-.76.1-.32.21-.63.32-.95.09-.25.17-.5.26-.75.12-.32.23-.65.35-.97.09-.24.18-.49.27-.73.13-.33.26-.65.39-.98.1-.24.19-.48.29-.72.14-.33.28-.66.42-.99.1-.23.2-.47.3-.7.15-.34.3-.68.46-1.01.1-.22.2-.45.31-.67.16-.35.33-.7.5-1.05.1-.21.2-.43.31-.64.18-.36.36-.72.55-1.08.1-.2.2-.4.3-.6.2-.38.4-.76.6-1.14.1-.18.19-.36.29-.54.23-.42.46-.83.69-1.25.08-.14.16-.28.23-.42"/>
    </g>
  </g>
</svg>