<?xml version="1.0" encoding="utf-8"?>
<!-- Generator: Adobe Illustrator 25.2.0, SVG Export Plug-In . SVG Version: 6.00 Build 0)  -->
<svg version="1.1" id="Capa_1" xmlns="http://www.w3.org/2000/svg" xmlns:xlink="http://www.w3.org/1999/xlink" x="0px" y="0px"
	 viewBox="0 0 273.4 167.4" style="enable-background:new 0 0 273.4 167.4;" xml:space="preserve">
<style type="text/css">
	.st0{fill:#FFEDB3;}
</style>
<g id="Capa_2_1_">
	<path class="st0" d="M147.6,33.8c-1.2,0-2.2-0.9-2.2-2.1c0,0,0,0,0,0V17.5c0.2-0.2,1.9-2.8,4-2.8c1.3-0.1,2.4,0.8,2.5,2.1v14.9
		c0,1.2-0.9,2.2-2.1,2.2c0,0,0,0,0,0v1.1h12v-1.1c-1.2,0-2.2-0.9-2.2-2.1c0,0,0,0,0,0V15.4c0-2.7-2.1-4.9-4.8-4.9
		c-0.1,0-0.3,0-0.4,0c-5.4,0-8.9,4.8-8.9,4.8V-1.3l-9.8,1.6l0.2,1c1-0.1,1.9,0.5,2,1.5c0,0.1,0,0.1,0,0.2v28.6
		c0,1.2-0.9,2.2-2.1,2.2c0,0,0,0,0,0v1.1h12L147.6,33.8z"/>
	<path class="st0" d="M175.3,35.4c4.6-0.1,8.5-3.2,9.9-7.5l-0.4-0.2c-1.3,2.3-3.7,3.7-6.3,3.7c-4.6,0.2-7.5-3.9-7.5-9.6h14.8
		c0.2-6.5-4-11.4-10.3-11.4c-7.2,0-12.2,6-12.2,12.7C163.3,30.2,168.4,35.4,175.3,35.4z M175.3,12.7c2.4,0,4.2,2.9,4.2,7.4h-8.5
		C171.1,15.6,173,12.6,175.3,12.7L175.3,12.7z"/>
	<path class="st0" d="M101.7,39.8c3.3-3.2,7.7-5,12.3-4.9h12.8v-1.1c-2.4,0-4.4-2-4.4-4.4V3.1h1.1c5.5,0,8.5,4,9.8,8.9h1.1
		c-0.4-3.2-0.8-8.9-1.1-12h-30.6c-0.3,3.1-0.7,8.8-1.1,12h1.1c1.3-4.9,4.4-8.9,9.8-8.9h1.1V27c0,2.5-1.2,3.4-3.7,3.4H46.3v4.2
		c9.3,0.1,16.9,7.6,16.9,16.9c0,0-0.7,60.7-0.7,72.8c0,35.5-49.5,42.4-47.5,14.7c0.3-3.6,3-6.1,5.6-7.3c14.9-6.9,5.8-26.4-9-21.1
		C4.6,113.4,0,121.2,0,130.3c0,25.4,24.7,38.2,49.2,37.7s48.7-14.5,48.5-42.9L97,51.6C96.9,47.2,98.6,43,101.7,39.8z"/>
	<path class="st0" d="M183.8,140.4v-24.5c0-11.5-3.8-20.4-11.7-25.5c-18.6-12-51.5-6.9-56.7,12.3c-1,3.6-0.3,7.5,1.8,10.7
		c2.4,3.2,6.3,4.9,10.2,4.4c5.2-0.9,8.8-5.8,7.9-11c0,0,0,0,0-0.1c-0.4-1.4-0.9-2.7-1.6-4C128,87.7,158.2,84,158.2,109v11
		c-11.1,3.5-46.4,5.6-46.4,27.9c0,12.1,7.7,19.6,21.2,19.6c10.8,0,18.7-5.8,25.8-14.5c2,8.3,8.8,14.6,17.8,14.6
		c13,0,19.9-6.4,22.9-19.6l-0.7-0.3C194.4,156.6,183.8,161.3,183.8,140.4z M158.2,147.3c-3.6,3.9-7.3,6.6-9.8,6.9
		c-7.1,0.9-11.1-4.1-11.1-11c0-7.3,8.3-12.3,20.9-18L158.2,147.3z"/>
	<path class="st0" d="M267,85.8c-11.5-6.7-23.6,2.6-32.3,13.4V84.8L201.9,90l0.6,3.5c3.2-0.5,6.2,1.8,6.7,5c0,0.2,0.1,0.5,0.1,0.7
		v55.5c0,4-3.2,7.3-7.1,7.3c-0.1,0-0.1,0-0.2,0v3.6H242V162c-4,0-7.3-3.2-7.3-7.1c0-0.1,0-0.1,0-0.2v-44.5
		c8.3-11.7,22.6-24.7,19.9-14.3c-2.2,7.6,1.8,13.7,8.8,13.7C274.9,109.6,277.1,91.6,267,85.8z"/>
	<path class="st0" d="M128.7,65.3l-0.5-0.2c-1.6,2.9-4.7,4.7-8,4.6c-5.8,0.2-9.4-4.9-9.4-12c0-7.8,4.3-10.4,6.3-11.1
		c3.2-1.2,7.2,0.2,5.4,3.2c-0.3,0.4-0.6,0.9-0.7,1.5c-0.4,1.9,0.8,3.9,2.7,4.3c1.4,0.3,2.9-0.3,3.8-1.4c0.9-1.2,1.2-2.6,1-4.1
		c-0.8-4.3-5.2-7-12.7-6.7c-8.7,0.2-15.5,7.3-15.4,16c0,8.8,6.4,15.4,15.1,15.4C121.7,74.8,126.7,71.2,128.7,65.3z"/>
	<path class="st0" d="M148.1,43.4c-10.9,0-16.1,7.8-16.1,15.8s5.1,15.6,16,15.6c6.1,0,10.5-2.5,13.1-6.1c2.6,3.6,6.9,6.1,13.1,6.1
		c10.8,0,16.1-7.8,16.1-15.8s-5.2-15.6-16-15.6c-6.1,0-10.5,2.5-13.1,6.2C158.6,45.9,154.2,43.4,148.1,43.4z M148,72
		c-5,0-6.4-7-6.4-13.2s1.4-12.6,6.4-12.6s6.5,6.6,6.5,12.8S153,72,148,72z M174.2,46.1c5,0,6.5,6.6,6.5,12.8S179.3,72,174.2,72
		s-6.4-7-6.4-13.2S169.2,46.1,174.2,46.1L174.2,46.1z"/>
	<path class="st0" d="M207.2,72.8c-1.5,0-2.7-1.2-2.7-2.7c0,0,0,0,0-0.1v-8.2c0.6-0.7,1.2-1.5,1.8-2.3l6.1,10.5
		c0.9,1.5,0.3,2.7-1.2,2.8v1.4h15.1v-1.4c-1.8-0.1-3.5-1.1-4.3-2.8l-10.3-17.6c1.5-1.9,2.8-3.6,3.8-4.9c1.1-1.5,3.7-2.7,6.7-2.8
		v-1.4h-11.6v1.4c4.1,0.1,3.9,1.3,2.7,2.8L204.5,59V28.7l-12.3,2l0.2,1.3c1.2-0.2,2.3,0.7,2.5,1.9c0,0.1,0,0.2,0,0.3v35.9
		c0,1.5-1.2,2.7-2.7,2.7c0,0,0,0-0.1,0v1.4h15.1L207.2,72.8z"/>
	<path class="st0" d="M234.4,41.1c0,0,1.5-3.5,2.5-4.4s4.4-2.5,4.4-2.5s-3.5-1.5-4.4-2.4s-2.5-4.4-2.5-4.4s-1.5,3.6-2.4,4.4
		s-4.4,2.4-4.4,2.4s3.6,1.5,4.4,2.5C233,38.1,233.8,39.6,234.4,41.1z"/>
	<path class="st0" d="M242.6,72.8c-1.5,0-2.7-1.2-2.7-2.7c0,0,0,0,0-0.1V43.8l-12.3,2l0.2,1.3c1.2-0.2,2.3,0.7,2.5,1.9
		c0,0.1,0,0.2,0,0.3v20.8c0,1.5-1.2,2.7-2.7,2.7c0,0,0,0-0.1,0v1.4h15.1V72.8z"/>
	<path class="st0" d="M259.7,74.8c5.4,0,10.4-3.6,12.4-9.4l-0.5-0.2c-1.6,2.9-4.7,4.7-8,4.6c-5.8,0.2-9.4-4.9-9.4-12h18.6
		c0.2-8.2-5-14.3-12.9-14.3c-9.1,0-15.4,7.5-15.4,16C244.6,68.2,251,74.8,259.7,74.8z M259.7,46.2c3,0,5.3,3.7,5.3,9.3h-10.6
		C254.4,49.9,256.8,46.2,259.7,46.2z"/>
</g>
</svg>
